<svg id="Layer_1" data-name="Layer 1" xmlns="http://www.w3.org/2000/svg" viewBox="0 0 471.4 471.4"><defs><style>.cls-1{fill:#ff4500;}.cls-2{fill:#fff;}</style></defs><title>logo</title><circle class="cls-1" cx="235.7" cy="235.7" r="235.7"/><path class="cls-2" d="M745.2,310H618.5a51.17,51.17,0,0,0-51.2,51.2V475.7a51.17,51.17,0,0,0,51.2,51.2H745.2a51.17,51.17,0,0,0,51.2-51.2V361.2A51.17,51.17,0,0,0,745.2,310ZM613.4,385.2a21,21,0,1,1,21,21A21,21,0,0,1,613.4,385.2Zm121.2,63.2c-15,12.1-31.7,18.2-49.9,18.2a84.38,84.38,0,0,1-13.1-1c-18.3-2.8-32.8-10.7-39.8-14.5-.9-.5-2.1-1.1-2.6-1.4a7.7,7.7,0,0,1,4.2-14.8,27.36,27.36,0,0,1,5.7,2.6c12.5,6.8,50.3,27.3,85.7-1.1a7.75,7.75,0,0,1,9.8,12Zm-5.3-42.2a21,21,0,1,1,21-21A21,21,0,0,1,729.3,406.2Z" transform="translate(-447.3 -139.3)"/><path class="cls-2" d="M775,212.8c-22.4-3.7-46.4,19.1-64.1,41.5a30.54,30.54,0,0,0-57.5-2c-17.5-21.7-40.7-43.2-62.5-39.5-42.5,7.1-45.6,54.2-33.5,70.2,19.2,25.5,113.5,12.4,123.1,11,.4,0,.8.1,1.2.1,1,0,2-.1,2.9-.1,5.1.8,104,15.2,123.7-10.9C820.6,267,817.5,219.9,775,212.8ZM593.9,251.7c19.9-25.9,60.6,29.2,60.6,29.2C588.9,289.8,580.9,268.5,593.9,251.7Zm117.7,29.2s40.7-55.1,60.6-29.2C785.1,268.5,777.1,289.8,711.6,280.9Z" transform="translate(-447.3 -139.3)"/></svg>